<svg width="219" height="219" xmlns="http://www.w3.org/2000/svg" xmlns:xlink="http://www.w3.org/1999/xlink" xml:space="preserve" overflow="hidden"><defs><clipPath id="clip0"><rect x="433" y="153" width="219" height="219"/></clipPath></defs><g clip-path="url(#clip0)" transform="translate(-433 -153)"><path d="M540.401 255.565 523.849 255.565 523.849 227.843 543.485 227.843C554.162 227.843 560.221 232.607 560.221 241.221 560.221 250.418 553.167 255.565 540.383 255.565ZM543.358 266.57 523.858 266.57 523.858 297.12 544.216 297.12C557.529 297.12 564.583 291.782 564.583 281.745 564.583 271.707 557.328 266.57 543.358 266.57ZM652 256.934 652 268.048C641.707 269.034 635.42 276.662 631.688 288.743 627.974 300.779 627.463 315.544 627.855 326.941 628.266 338.803 619.022 349.753 606.53 349.753L478.488 349.753C465.987 349.753 456.743 338.803 457.163 326.941 457.555 315.544 457.044 300.779 453.331 288.743 449.589 276.662 443.293 269.034 433 268.048L433 256.934C443.293 255.948 449.598 248.32 453.321 236.238 457.044 224.202 457.555 209.438 457.154 198.041 456.743 186.178 465.987 175.229 478.488 175.229L606.53 175.229C619.031 175.229 628.266 186.178 627.855 198.041 627.463 209.438 627.974 224.202 631.688 236.238 635.42 248.32 641.707 255.948 652 256.934ZM579.666 282.639C579.666 270.284 570.97 261.35 558.058 259.936L558.058 259.416C567.548 257.874 574.994 249.059 574.994 239.222 574.994 225.197 563.925 216.063 547.053 216.063L509.093 216.063 509.093 308.882 547.245 308.882C567.484 308.882 579.666 298.973 579.666 282.639Z" fill="#5AE6C7"/></g></svg>