<svg width="75" height="75" xmlns="http://www.w3.org/2000/svg" xmlns:xlink="http://www.w3.org/1999/xlink" xml:space="preserve" overflow="hidden"><defs><clipPath id="clip0"><rect x="49" y="456" width="75" height="75"/></clipPath></defs><g clip-path="url(#clip0)" transform="translate(-49 -456)"><path d="M114.839 468.042 58.1611 468.042C53.1099 468.042 49 472.152 49 477.203L49 509.797C49 514.848 53.1099 518.958 58.1611 518.958L114.839 518.958C119.89 518.958 124 514.848 124 509.797L124 477.204C124.001 472.152 119.891 468.042 114.839 468.042ZM110.362 474.018 86.5 489.392 62.6375 474.018 110.362 474.018ZM114.839 512.983 58.1611 512.983C56.405 512.983 54.9766 511.553 54.9766 509.798L54.9766 477.373 84.6562 496.458C84.6961 496.483 84.7389 496.5 84.7797 496.523 84.8226 496.547 84.8664 496.57 84.9102 496.592 85.1403 496.71 85.3774 496.806 85.6195 496.869 85.6443 496.876 85.6693 496.879 85.6942 496.885 85.9601 496.947 86.2291 496.986 86.498 496.986 86.499 496.986 86.5 496.986 86.5 496.986 86.502 496.986 86.503 496.986 86.504 496.986 86.7729 496.986 87.0419 496.948 87.3078 496.885 87.3327 496.879 87.3576 496.876 87.3825 496.869 87.6246 496.806 87.8607 496.71 88.0918 496.592 88.1356 496.57 88.1794 496.547 88.2222 496.523 88.2631 496.5 88.3059 496.483 88.3458 496.458L118.025 477.373 118.025 509.797C118.024 511.553 116.595 512.983 114.839 512.983Z" fill="#5AE6C7"/></g></svg>