<svg width="259" height="259" xmlns="http://www.w3.org/2000/svg" xmlns:xlink="http://www.w3.org/1999/xlink" xml:space="preserve" overflow="hidden"><defs><clipPath id="clip0"><rect x="838" y="373" width="259" height="259"/></clipPath></defs><g clip-path="url(#clip0)" transform="translate(-838 -373)"><path d="M935.125 578.042C881.167 594.229 881.167 551.062 859.583 545.667M1010.67 610.417 1010.67 568.653C1011.49 558.243 1007.79 547.984 1000.52 540.487 1034.41 536.71 1070.02 523.867 1070.02 464.945 1070.02 449.878 1064.22 435.389 1053.83 424.476 1058.75 411.294 1058.4 396.724 1052.86 383.792 1052.86 383.792 1040.13 380.015 1010.67 399.763 985.932 393.06 959.859 393.06 935.125 399.763 905.664 380.015 892.93 383.792 892.93 383.792 887.387 396.724 887.039 411.294 891.958 424.476 881.492 435.47 875.69 450.09 875.771 465.269 875.771 523.76 911.383 536.602 945.269 540.81 938.089 548.231 934.401 558.353 935.125 568.653L935.125 610.417" stroke="#5AE6C7" stroke-width="21.5833" stroke-linecap="round" stroke-linejoin="round" fill="none"/></g></svg>