<svg width="48" height="48" xmlns="http://www.w3.org/2000/svg" xmlns:xlink="http://www.w3.org/1999/xlink" xml:space="preserve" overflow="hidden"><defs><clipPath id="clip0"><rect x="187" y="157" width="48" height="48"/></clipPath></defs><g clip-path="url(#clip0)" transform="translate(-187 -157)"><path d="M227.4 162.5 222.6 162.5C221.166 162.5 220 163.666 220 165.1L220 169.9C220 171.334 221.166 172.5 222.6 172.5L227.4 172.5C228.834 172.5 230 171.334 230 169.9L230 165.1C230 163.666 228.834 162.5 227.4 162.5ZM228 169.9C228 170.231 227.731 170.5 227.4 170.5L222.6 170.5C222.269 170.5 222 170.231 222 169.9L222 165.1C222 164.769 222.269 164.5 222.6 164.5L227.4 164.5C227.731 164.5 228 164.769 228 165.1L228 169.9Z" fill="#5AE6C7"/><path d="M224.8 157.5 197.2 157.5C191.576 157.5 187 162.089 187 167.731L187 174.5 187 176.5 187 194.27C187 199.911 191.576 204.5 197.2 204.5L224.8 204.5C230.424 204.5 235 199.911 235 194.27L235 176.5 235 174.5 235 167.731C235 162.089 230.424 157.5 224.8 157.5ZM233 194.27C233 198.808 229.321 202.5 224.8 202.5L197.2 202.5C192.678 202.5 189 198.808 189 194.27L189 176.5 201.221 176.5C198.62 179.043 197 182.584 197 186.5 197 194.22 203.28 200.5 211 200.5 218.72 200.5 225 194.22 225 186.5 225 182.584 223.38 179.043 220.779 176.5L233 176.5 233 194.27ZM223 186.5C223 193.117 217.617 198.5 211 198.5 204.383 198.5 199 193.117 199 186.5 199 179.883 204.383 174.5 211 174.5 217.617 174.5 223 179.883 223 186.5ZM218.174 174.5C216.073 173.239 213.624 172.5 211 172.5 208.376 172.5 205.927 173.239 203.826 174.5L189 174.5 189 167.731C189 163.192 192.679 159.5 197.2 159.5L224.8 159.5C229.321 159.5 233 163.192 233 167.731L233 174.5 218.174 174.5Z" fill="#5AE6C7"/><path d="M202 186.5C202 191.462 206.037 195.5 211 195.5 215.963 195.5 220 191.462 220 186.5 220 181.538 215.963 177.5 211 177.5 206.037 177.5 202 181.538 202 186.5ZM218 186.5C218 190.36 214.859 193.5 211 193.5 207.141 193.5 204 190.36 204 186.5 204 182.64 207.141 179.5 211 179.5 214.859 179.5 218 182.64 218 186.5Z" fill="#5AE6C7"/></g></svg>