<svg width="305" height="305" xmlns="http://www.w3.org/2000/svg" xmlns:xlink="http://www.w3.org/1999/xlink" xml:space="preserve" overflow="hidden"><defs><clipPath id="clip0"><rect x="487" y="207" width="305" height="305"/></clipPath></defs><g clip-path="url(#clip0)" transform="translate(-487 -207)"><path d="M637.99 263.513C623.897 273.425 607.924 284.66 599.366 303.247 584.501 335.673 629.784 371.044 631.719 372.534 632.169 372.881 632.707 373.053 633.244 373.053 633.813 373.053 634.385 372.858 634.849 372.47 635.747 371.718 636.003 370.441 635.463 369.401 635.299 369.085 619.045 337.514 619.649 314.863 619.863 306.975 630.903 298.026 642.591 288.551 653.295 279.873 665.429 270.037 672.529 258.531 688.115 233.204 670.792 208.3 670.615 208.052 669.927 207.086 668.657 206.735 667.571 207.212 666.486 207.69 665.885 208.864 666.133 210.023 666.168 210.187 669.537 226.656 660.163 243.623 656.3 250.634 647.815 256.603 637.99 263.513Z" fill="#5AE6C7"/><path d="M697.364 274.682C698.358 273.933 698.65 272.567 698.048 271.477 697.446 270.387 696.135 269.906 694.971 270.348 692.577 271.258 636.344 292.933 636.344 319.124 636.344 337.177 644.057 346.715 649.688 353.68 651.896 356.411 653.803 358.77 654.431 360.784 656.2 366.587 652.009 377.077 650.247 380.629 649.74 381.651 649.988 382.888 650.852 383.634 651.319 384.037 651.902 384.241 652.486 384.241 652.983 384.241 653.482 384.093 653.913 383.793 654.88 383.12 677.543 367.097 673.478 347.793 671.964 340.456 668.358 335.094 665.176 330.363 660.247 323.034 656.687 317.739 662.088 307.96 668.418 296.556 697.075 274.899 697.364 274.682Z" fill="#5AE6C7"/><path d="M550.99 384.658C550.026 387.543 550.481 390.408 552.305 392.941 558.401 401.403 579.993 406.064 613.107 406.064 613.109 406.064 613.11 406.064 613.111 406.064 617.598 406.064 622.335 405.976 627.187 405.802 680.129 403.906 699.766 387.413 700.576 386.712 701.459 385.948 701.695 384.675 701.146 383.645 700.597 382.616 699.413 382.099 698.282 382.41 679.637 387.501 644.819 389.308 620.67 389.308 593.647 389.308 579.885 387.362 576.516 385.925 578.245 383.551 588.908 379.312 602.121 376.713 603.384 376.465 604.252 375.299 604.127 374.018 604.002 372.737 602.926 371.76 601.639 371.76 593.893 371.761 555.05 372.383 550.99 384.658Z" fill="#5AE6C7"/><path d="M728.147 367.672C717.227 367.672 706.872 373.144 706.436 373.377 705.426 373.918 704.914 375.076 705.191 376.188 705.469 377.299 706.468 378.08 707.614 378.081 707.846 378.082 730.907 378.27 732.996 391.446 734.846 402.813 711.176 421.231 701.899 427.369 700.897 428.032 700.508 429.314 700.973 430.421 701.368 431.364 702.287 431.954 703.277 431.954 703.45 431.954 703.625 431.936 703.799 431.898 706.001 431.428 757.654 420.046 752.193 389.971 748.861 371.54 737.277 367.672 728.147 367.672Z" fill="#5AE6C7"/><path d="M692.724 423.689C692.904 422.725 692.503 421.745 691.701 421.183L679.316 412.508C678.712 412.085 677.949 411.952 677.24 412.14 677.111 412.174 664.159 415.578 645.355 417.666 637.893 418.503 629.534 418.945 621.181 418.945 602.382 418.945 590.09 416.736 588.3 415.116 588.063 414.661 588.138 414.454 588.18 414.339 588.505 413.434 590.248 412.359 591.372 411.934 592.613 411.475 593.282 410.127 592.896 408.861 592.511 407.595 591.206 406.849 589.918 407.159 577.494 410.157 571.419 414.35 571.861 419.62 572.646 428.963 594.289 433.759 612.586 435.028 615.217 435.208 618.063 435.3 621.042 435.3 621.044 435.3 621.045 435.3 621.047 435.3 651.471 435.3 690.475 425.754 690.865 425.657 691.817 425.422 692.543 424.653 692.724 423.689Z" fill="#5AE6C7"/><path d="M599.351 443.744C600.289 443.133 600.705 441.974 600.372 440.906 600.04 439.838 599.041 439.137 597.919 439.151 596.254 439.195 581.627 439.855 580.603 449.168 580.293 451.951 581.09 454.493 582.973 456.724 588.225 462.948 602.401 466.647 626.305 468.034 629.133 468.203 632.005 468.288 634.844 468.288 665.233 468.288 685.7 458.773 686.557 458.368 687.388 457.975 687.936 457.159 687.985 456.241 688.034 455.324 687.576 454.453 686.792 453.974L671.14 444.419C670.597 444.088 669.947 443.978 669.327 444.105 669.228 444.126 659.29 446.187 644.292 448.224 641.454 448.609 637.901 448.805 633.731 448.805 618.749 448.805 602.085 446.357 598.889 444.755 598.843 444.454 598.902 444.074 599.351 443.744Z" fill="#5AE6C7"/><path d="M620.681 497.017C690.29 496.958 727.651 484.579 734.848 476.789 737.396 474.032 737.671 471.423 737.454 469.719 736.919 465.525 733.1 462.958 732.666 462.679 731.621 462.007 730.219 462.183 729.404 463.123 728.591 464.064 728.572 465.437 729.388 466.376 729.827 466.941 730.081 467.886 728.797 469.171 725.92 471.858 696.9 480.015 648.582 482.465 641.964 482.81 635.021 482.984 627.95 482.985 584.688 482.985 553.027 477.06 548.871 473.606 550.474 471.305 561.672 467.627 573.582 465.548 574.924 465.314 575.831 464.049 575.623 462.703 575.415 461.357 574.174 460.43 572.818 460.607 572.482 460.652 571.343 460.722 570.022 460.802 550.371 462.002 527.662 464.677 526.477 474.801 526.117 477.887 527.034 480.687 529.203 483.125 534.51 489.088 549.765 497.016 620.678 497.016 620.68 497.017 620.68 497.017 620.681 497.017Z" fill="#5AE6C7"/><path d="M748.521 478.984C747.537 478.529 746.375 478.759 745.64 479.551 745.537 479.661 735.072 490.605 703.605 497.031 691.558 499.445 668.945 500.669 636.395 500.669 603.783 500.669 572.752 499.386 572.442 499.373 571.146 499.31 570.037 500.252 569.861 501.528 569.684 502.804 570.506 504.005 571.758 504.303 572.081 504.38 604.602 511.999 649.067 511.999 670.394 511.999 691.147 510.266 710.751 506.848 747.304 500.44 749.863 482.315 749.954 481.547 750.081 480.473 749.503 479.439 748.521 478.984Z" fill="#5AE6C7"/></g></svg>