<svg width="241" height="241" xmlns="http://www.w3.org/2000/svg" xmlns:xlink="http://www.w3.org/1999/xlink" xml:space="preserve" overflow="hidden"><defs><clipPath id="clip0"><rect x="118" y="373" width="241" height="241"/></clipPath></defs><g clip-path="url(#clip0)" transform="translate(-118 -373)"><path d="M238.5 472.021C226.638 472.021 217.021 481.638 217.021 493.5 217.021 505.362 226.638 514.979 238.5 514.979 250.362 514.979 259.979 505.362 259.979 493.5 259.979 481.638 250.362 472.021 238.5 472.021ZM178.33 536.227 173.591 535.022C138.264 526.095 118 510.942 118 493.46 118 475.977 138.264 460.824 173.591 451.897L178.33 450.702 179.666 455.402C183.245 467.73 187.822 479.746 193.353 491.331L194.367 493.47 193.353 495.609C187.813 507.19 183.235 519.207 179.666 531.538L178.33 536.227ZM171.392 462.873C144.54 470.414 128.062 481.952 128.062 493.46 128.062 504.958 144.54 516.495 171.392 524.047 174.675 513.602 178.64 503.385 183.261 493.46 178.635 483.537 174.67 473.319 171.392 462.873ZM298.67 536.227 297.334 531.518C293.759 519.191 289.178 507.177 283.637 495.599L282.623 493.46 283.637 491.321C289.176 479.739 293.757 467.722 297.334 455.392L298.67 450.692 303.419 451.887C338.736 460.814 359 475.967 359 493.46 359 510.952 338.736 526.095 303.419 535.022L298.67 536.227ZM293.739 493.46C298.559 503.893 302.546 514.146 305.608 524.047 332.47 516.495 348.938 504.958 348.938 493.46 348.938 481.952 332.46 470.424 305.608 462.873 302.329 473.318 298.364 483.537 293.739 493.46ZM171.321 462.823 169.986 458.133C160.055 423.128 163.067 398.044 178.25 389.288 193.142 380.692 217.051 390.844 242.105 416.561L245.519 420.065 242.105 423.57C233.203 432.824 225.068 442.788 217.784 453.363L216.428 455.302 214.069 455.502C201.255 456.513 188.544 458.561 176.061 461.628L171.321 462.823ZM190.36 396.246C187.669 396.246 185.289 396.829 183.281 397.984 173.299 403.738 171.532 423.741 178.411 450.733 189.111 448.352 199.956 446.672 210.875 445.702 217.176 436.743 224.059 428.209 231.481 420.156 215.816 404.902 200.984 396.246 190.36 396.246ZM286.65 600.715C286.64 600.715 286.64 600.715 286.65 600.715 272.34 600.715 253.964 589.94 234.895 570.359L231.481 566.854 234.895 563.35C243.795 554.092 251.926 544.125 259.206 533.546L260.562 531.608 262.911 531.407C275.732 530.403 288.45 528.358 300.939 525.292L305.679 524.097 307.024 528.796C316.935 563.782 313.933 588.876 298.75 597.622 295.062 599.708 290.886 600.775 286.65 600.715ZM245.519 566.764C261.184 582.017 276.016 590.673 286.64 590.673L286.65 590.673C289.331 590.673 291.721 590.091 293.719 588.936 303.701 583.182 305.478 563.169 298.589 536.177 287.886 538.561 277.038 540.242 266.115 541.208 259.821 550.172 252.942 558.71 245.519 566.764ZM305.679 462.823 300.939 461.628C288.451 458.552 275.734 456.504 262.911 455.502L260.562 455.302 259.206 453.363C251.93 442.785 243.799 432.821 234.895 423.57L231.481 420.065 234.895 416.561C259.939 390.854 283.838 380.702 298.75 389.288 313.933 398.044 316.945 423.128 307.024 458.123L305.679 462.823ZM266.115 445.702C277.582 446.746 288.477 448.443 298.589 450.733 305.478 423.741 303.701 403.738 293.719 397.984 283.798 392.25 265.151 401.036 245.519 420.156 252.937 428.21 259.817 436.744 266.115 445.702ZM190.36 600.715C186.121 600.776 181.941 599.709 178.25 597.622 163.067 588.876 160.055 563.792 169.986 528.796L171.311 524.097 176.051 525.292C187.649 528.214 200.442 530.273 214.059 531.407L216.418 531.608 217.764 533.546C225.05 544.123 233.184 554.09 242.085 563.35L245.499 566.854 242.085 570.359C223.026 589.94 204.65 600.715 190.36 600.715ZM178.411 536.177C171.522 563.169 173.299 583.182 183.281 588.936 193.192 594.589 211.829 585.873 231.481 566.764 224.062 558.704 217.179 550.167 210.875 541.208 199.955 540.242 189.111 538.562 178.411 536.177ZM238.5 542.483C230.236 542.483 221.74 542.122 213.235 541.419L210.875 541.218 209.52 539.28C204.709 532.367 200.186 525.259 195.964 517.972 191.753 510.679 187.847 503.215 184.255 495.599L183.251 493.46 184.255 491.321C187.847 483.704 191.753 476.24 195.964 468.948 200.121 461.758 204.69 454.589 209.52 447.64L210.875 445.702 213.235 445.501C230.052 444.075 246.958 444.075 263.775 445.501L266.125 445.702 267.47 447.64C277.102 461.468 285.556 476.08 292.745 491.321L293.759 493.46 292.745 495.599C285.573 510.849 277.118 525.463 267.47 539.28L266.125 541.218 263.775 541.419C255.27 542.122 246.764 542.483 238.5 542.483ZM216.438 531.598C231.3 532.713 245.7 532.713 260.572 531.598 268.874 519.461 276.246 506.711 282.623 493.46 276.258 480.201 268.882 467.45 260.562 455.322 245.875 454.207 231.125 454.207 216.438 455.322 208.115 467.448 200.739 480.199 194.377 493.46 200.761 506.71 208.136 519.459 216.438 531.598Z" fill="#5AE6C7"/></g></svg>