<svg width="512" height="512" xmlns="http://www.w3.org/2000/svg" xmlns:xlink="http://www.w3.org/1999/xlink" xml:space="preserve" overflow="hidden"><defs><clipPath id="clip0"><rect x="384" y="104" width="512" height="512"/></clipPath></defs><g clip-path="url(#clip0)" transform="translate(-384 -104)"><path d="M827.181 239.912C827.155 239.879 827.129 239.846 827.103 239.813 826.668 239.291 826.212 238.777 825.715 238.28L697.726 110.29C697.229 109.794 696.715 109.338 696.193 108.903 696.161 108.876 696.127 108.851 696.094 108.825 691.719 105.219 686.56 103.754 681.566 104.043L469.326 104.043C457.545 104.043 447.995 113.593 447.995 125.374L447.995 594.668C447.995 606.449 457.545 615.999 469.326 615.999L810.63 615.999C822.411 615.999 831.961 606.449 831.961 594.668L831.961 254.439C832.251 249.447 830.787 244.286 827.181 239.912ZM759.131 232.032 703.973 232.032 703.973 176.873 759.131 232.032ZM490.658 573.337 490.658 146.705 661.311 146.705 661.311 253.363C661.311 265.144 670.861 274.695 682.642 274.695L789.3 274.695 789.3 573.337 490.658 573.337Z" fill="#EFF6E0"/><path d="M746.637 360.022 703.973 360.022C692.192 360.022 682.642 369.572 682.642 381.353 682.642 393.134 692.192 402.684 703.973 402.684L746.637 402.684C758.418 402.684 767.968 393.134 767.968 381.353 767.968 369.572 758.418 360.022 746.637 360.022Z" fill="#EFF6E0"/><path d="M533.32 402.684 618.646 402.684C630.427 402.684 639.977 393.134 639.977 381.353 639.977 369.572 630.427 360.022 618.646 360.022L533.32 360.022C521.539 360.022 511.989 369.572 511.989 381.353 511.989 393.134 521.539 402.684 533.32 402.684Z" fill="#EFF6E0"/><path d="M575.984 232.032C587.759 232.032 597.315 222.476 597.315 210.701 597.315 198.926 587.759 189.369 575.984 189.369 564.209 189.369 554.653 198.925 554.653 210.7 554.653 222.475 564.209 232.032 575.984 232.032Z" fill="#EFF6E0"/><path d="M575.984 253.363C552.413 253.363 533.32 278.364 533.32 296.027L618.646 296.027C618.647 278.364 599.555 253.363 575.984 253.363Z" fill="#EFF6E0"/><path d="M726.062 460.998C722.052 481.071 662.431 460.571 655.071 451.591 645.941 440.499 628.278 445.298 621.559 455.921 611.384 472.005 561.255 471.685 551.741 455.921 537.577 432.435 500.673 453.853 514.901 477.445 537.514 514.928 604.146 520.304 641.167 494.953 680.549 517.838 757.526 520.774 767.211 472.347 772.564 445.533 731.459 434.056 726.062 460.998Z" fill="#EFF6E0"/></g></svg>