<svg width="209" height="210" xmlns="http://www.w3.org/2000/svg" xmlns:xlink="http://www.w3.org/1999/xlink" xml:space="preserve" overflow="hidden"><defs><clipPath id="clip0"><rect x="180" y="462" width="209" height="210"/></clipPath></defs><g clip-path="url(#clip0)" transform="translate(-180 -462)"><path d="M190.033 10.868C187.09 17.8869 183.363 24.5401 178.878 30.6533 159.208 11.0205 132.552-0.00416437 104.761-1.66098e-07 47.295 0 0 47.2862 0 104.77 0 133.447 11.7562 160.895 32.543 180.68L36.4095 184.103C55.3018 200.01 79.2023 208.737 103.899 208.747 158.544 208.747 204.48 165.981 208.373 111.458 211.229 84.7669 203.392 51.0134 190.033 10.8767ZM47.4343 181.281C45.7449 183.371 43.1672 184.591 40.4676 184.591 35.5266 184.567 31.5297 180.562 31.5155 175.621 31.5155 170.709 35.5648 166.651 40.4676 166.651 45.431 166.667 49.4422 170.702 49.4268 175.666 49.4205 177.71 48.7176 179.69 47.4343 181.281ZM189.598 149.914C163.743 184.347 108.523 172.747 73.1239 174.402 73.1239 174.402 66.8365 174.785 60.5229 175.813 60.5229 175.813 62.8916 174.811 65.9656 173.635 90.8105 164.997 102.567 163.316 117.667 155.566 146.108 141.11 174.219 109.472 180.071 76.5637 169.238 108.227 136.425 135.432 106.512 146.492 86.0209 154.042 49.0105 161.383 49.0105 161.383L47.5127 160.599C22.3107 148.338 21.5531 93.7887 67.3503 76.1805 87.4055 68.4649 106.599 72.6972 128.256 67.5418 151.386 62.0556 178.138 44.7086 189.023 22.093 201.215 58.2675 215.888 114.906 189.598 149.914Z" fill="#5AE6C7" transform="matrix(1 0 0 1.00478 180 462)"/></g></svg>