<svg width="1760" height="1760" xmlns="http://www.w3.org/2000/svg" xmlns:xlink="http://www.w3.org/1999/xlink" xml:space="preserve" overflow="hidden"><defs><clipPath id="clip0"><rect x="1457" y="285" width="1760" height="1760"/></clipPath><clipPath id="clip1"><rect x="2200" y="1028" width="165" height="166"/></clipPath><clipPath id="clip2"><rect x="2200" y="1028" width="165" height="166"/></clipPath><clipPath id="clip3"><rect x="2200" y="1028" width="165" height="166"/></clipPath></defs><g clip-path="url(#clip0)" transform="translate(-1457 -285)"><g clip-path="url(#clip1)"><g clip-path="url(#clip2)"><g clip-path="url(#clip3)"><path d="M2338.88 1047.91 2322.38 1047.91C2317.45 1047.91 2313.44 1051.91 2313.44 1056.84L2313.44 1073.34C2313.44 1078.27 2317.45 1082.28 2322.38 1082.28L2338.88 1082.28C2343.8 1082.28 2347.81 1078.27 2347.81 1073.34L2347.81 1056.84C2347.81 1051.91 2343.8 1047.91 2338.88 1047.91ZM2340.94 1073.34C2340.94 1074.48 2340.01 1075.41 2338.88 1075.41L2322.38 1075.41C2321.24 1075.41 2320.31 1074.48 2320.31 1073.34L2320.31 1056.84C2320.31 1055.71 2321.24 1054.78 2322.38 1054.78L2338.88 1054.78C2340.01 1054.78 2340.94 1055.71 2340.94 1056.84L2340.94 1073.34Z" fill="#5AE6C7"/><path d="M2329.94 1030.72 2235.06 1030.72C2215.73 1030.72 2200 1046.49 2200 1065.89L2200 1089.16 2200 1096.03 2200 1157.12C2200 1176.51 2215.73 1192.28 2235.06 1192.28L2329.94 1192.28C2349.27 1192.28 2365 1176.51 2365 1157.12L2365 1096.03 2365 1089.16 2365 1065.89C2365 1046.49 2349.27 1030.72 2329.94 1030.72ZM2358.12 1157.12C2358.12 1172.71 2345.48 1185.41 2329.94 1185.41L2235.06 1185.41C2219.52 1185.41 2206.88 1172.71 2206.88 1157.12L2206.88 1096.03 2248.88 1096.03C2239.94 1104.77 2234.38 1116.94 2234.38 1130.41 2234.38 1156.94 2255.96 1178.53 2282.5 1178.53 2309.04 1178.53 2330.62 1156.94 2330.62 1130.41 2330.62 1116.94 2325.06 1104.77 2316.12 1096.03L2358.12 1096.03 2358.12 1157.12ZM2323.75 1130.41C2323.75 1153.15 2305.25 1171.66 2282.5 1171.66 2259.75 1171.66 2241.25 1153.15 2241.25 1130.41 2241.25 1107.66 2259.75 1089.16 2282.5 1089.16 2305.25 1089.16 2323.75 1107.66 2323.75 1130.41ZM2307.16 1089.16C2299.94 1084.82 2291.52 1082.28 2282.5 1082.28 2273.48 1082.28 2265.06 1084.82 2257.84 1089.16L2206.88 1089.16 2206.88 1065.89C2206.88 1050.28 2219.52 1037.59 2235.06 1037.59L2329.94 1037.59C2345.48 1037.59 2358.12 1050.28 2358.12 1065.89L2358.12 1089.16 2307.16 1089.16Z" fill="#5AE6C7"/><path d="M2251.56 1130.41C2251.56 1147.46 2265.44 1161.34 2282.5 1161.34 2299.56 1161.34 2313.44 1147.46 2313.44 1130.41 2313.44 1113.35 2299.56 1099.47 2282.5 1099.47 2265.44 1099.47 2251.56 1113.35 2251.56 1130.41ZM2306.56 1130.41C2306.56 1143.67 2295.77 1154.47 2282.5 1154.47 2269.23 1154.47 2258.44 1143.67 2258.44 1130.41 2258.44 1117.14 2269.23 1106.34 2282.5 1106.34 2295.77 1106.34 2306.56 1117.14 2306.56 1130.41Z" fill="#5AE6C7"/></g></g></g><path d="M3177.11 610.819C3149.46 623.08 3121.04 633.43 3091.99 641.835 3126.38 602.943 3152.6 557.184 3168.6 507.11 3172.19 495.886 3168.47 483.601 3159.24 476.258 3150.03 468.912 3137.23 468.032 3127.08 474.045 3065.4 510.63 2998.85 536.923 2929.07 552.296 2858.77 483.611 2763.3 444.52 2664.61 444.52 2456.27 444.52 2286.78 614.009 2286.78 822.334 2286.78 838.741 2287.82 855.059 2289.88 871.15 2031.36 848.452 1791.01 721.385 1625.97 518.935 1620.09 511.719 1611.03 507.828 1601.75 508.574 1592.47 509.299 1584.13 514.535 1579.44 522.582 1545.97 580.019 1528.27 645.713 1528.27 712.555 1528.27 803.593 1560.77 889.967 1618.19 957.462 1600.73 951.415 1583.79 943.86 1567.62 934.884 1558.94 930.051 1548.34 930.127 1539.72 935.07 1531.09 940.016 1525.68 949.109 1525.45 959.05 1525.41 960.724 1525.41 962.398 1525.41 964.096 1525.41 1099.98 1598.55 1222.33 1710.36 1289.01 1700.76 1288.05 1691.16 1286.66 1681.62 1284.83 1671.78 1282.95 1661.67 1286.4 1655.04 1293.9 1648.4 1301.4 1646.2 1311.84 1649.27 1321.38 1690.65 1450.6 1797.21 1545.64 1926.03 1574.62 1819.19 1641.54 1697.01 1676.59 1568.74 1676.59 1541.98 1676.59 1515.06 1675.02 1488.72 1671.91 1475.63 1670.35 1463.12 1678.08 1458.66 1690.52 1454.21 1702.97 1458.93 1716.85 1470.06 1723.99 1634.84 1829.64 1825.36 1885.48 2021.04 1885.48 2405.7 1885.48 2646.34 1704.09 2780.47 1551.92 2947.72 1362.17 3043.65 1111.02 3043.65 862.872 3043.65 852.505 3043.49 842.038 3043.17 831.602 3109.16 781.885 3165.97 721.715 3212.2 652.56 3219.22 642.059 3218.46 628.175 3210.33 618.508 3202.21 608.825 3188.67 605.697 3177.11 610.819Z" fill="#5AE6C7"/></g></svg>