<svg width="193" height="193" xmlns="http://www.w3.org/2000/svg" xmlns:xlink="http://www.w3.org/1999/xlink" xml:space="preserve" overflow="hidden"><defs><clipPath id="clip0"><rect x="49" y="60" width="193" height="193"/></clipPath></defs><g clip-path="url(#clip0)" transform="translate(-49 -60)"><path d="M77.2433 180.625 114.716 180.625C113.812 173.005 113.333 164.9 113.333 156.5 113.333 148.1 113.812 139.996 114.716 132.375L77.2433 132.375C74.5762 139.921 73.125 148.041 73.125 156.5 73.125 164.959 74.5762 173.079 77.2433 180.625L77.2433 180.625ZM80.6481 188.667C90.2208 207.929 108.123 222.322 129.642 227.132 123.376 218.604 118.578 205.048 115.856 188.667L80.6481 188.667 80.6481 188.667ZM213.757 180.625C216.423 173.079 217.875 164.959 217.875 156.5 217.875 148.041 216.423 139.921 213.757 132.375L176.284 132.375C177.188 139.996 177.667 148.1 177.667 156.5 177.667 164.9 177.188 173.005 176.284 180.625L213.757 180.625 213.757 180.625ZM210.352 188.667 175.143 188.667C172.422 205.048 167.623 218.604 161.358 227.132 182.877 222.322 200.779 207.929 210.352 188.667L210.352 188.667ZM122.858 180.625 168.142 180.625C169.094 173.085 169.625 164.966 169.625 156.5 169.625 148.034 169.094 139.915 168.142 132.375L122.858 132.375C121.906 139.915 121.375 148.034 121.375 156.5 121.375 164.966 121.906 173.085 122.858 180.625L122.858 180.625ZM124.069 188.667C128.268 212.533 136.8 228.875 145.5 228.875 154.2 228.875 162.732 212.533 166.931 188.667L124.069 188.667 124.069 188.667ZM80.6481 124.333 115.856 124.333C118.578 107.951 123.376 94.3961 129.642 85.8677 108.123 90.678 90.2208 105.071 80.6481 124.333L80.6481 124.333ZM210.352 124.333C200.779 105.071 182.877 90.678 161.358 85.8677 167.623 94.3961 172.422 107.951 175.143 124.333L210.352 124.333 210.352 124.333ZM124.069 124.333 166.931 124.333C162.732 100.467 154.2 84.125 145.5 84.125 136.8 84.125 128.268 100.467 124.069 124.333L124.069 124.333ZM145.5 236.917C101.087 236.917 65.0833 200.913 65.0833 156.5 65.0833 112.087 101.087 76.0833 145.5 76.0833 189.913 76.0833 225.917 112.087 225.917 156.5 225.917 200.913 189.913 236.917 145.5 236.917Z" fill="#5AE6C7"/></g></svg>